<?xml version="1.0" encoding="UTF-8" standalone="no"?>
<svg
   xmlns:dc="http://purl.org/dc/elements/1.1/"
   xmlns:cc="http://creativecommons.org/ns#"
   xmlns:rdf="http://www.w3.org/1999/02/22-rdf-syntax-ns#"
   xmlns:svg="http://www.w3.org/2000/svg"
   xmlns="http://www.w3.org/2000/svg"
   xmlns:sodipodi="http://sodipodi.sourceforge.net/DTD/sodipodi-0.dtd"
   xmlns:inkscape="http://www.inkscape.org/namespaces/inkscape"
   version="1.2"
   x="0px"
   y="0px"
   width="24px"
   height="24px"
   viewBox="0 0 24 24"
   id="svg10"
   sodipodi:docname="box.svg"
   inkscape:version="1.0.2-2 (e86c870879, 2021-01-15)">
	<metadata
	   id="metadata16">
		<rdf:RDF>
			<cc:Work
			   rdf:about="">
				<dc:format>image/svg+xml</dc:format>
				<dc:type
				   rdf:resource="http://purl.org/dc/dcmitype/StillImage" />
			</cc:Work>
		</rdf:RDF>
	</metadata>
	<defs
	   id="defs14" />
	<sodipodi:namedview
	   pagecolor="#ffffff"
	   bordercolor="#666666"
	   borderopacity="1"
	   objecttolerance="10"
	   gridtolerance="10"
	   guidetolerance="10"
	   inkscape:pageopacity="0"
	   inkscape:pageshadow="2"
	   inkscape:window-width="1549"
	   inkscape:window-height="957"
	   id="namedview12"
	   showgrid="false"
	   inkscape:zoom="35.833333"
	   inkscape:cx="12"
	   inkscape:cy="12"
	   inkscape:window-x="173"
	   inkscape:window-y="43"
	   inkscape:window-maximized="0"
	   inkscape:current-layer="svg10"
	   inkscape:document-rotation="0" />
	<polygon
	   points="11.476,7.766 11.476,22.481 0,17.21 0,3.677  "
	   id="polygon2" />
	<polygon
	   points="24,3.677 20.336,4.936 20.336,13.163 17.261,14.168 17.261,5.991 12.532,7.617 12.534,22.63    24,17.847  "
	   id="polygon4" />
	<polygon
	   points="20.129,3.875 23.409,2.758 11.744,0 8.986,0.749   "
	   id="polygon6" />
	<polyline
	   points="0.709,2.996 11.586,6.779 16.823,4.998 5.616,1.694   "
	   id="polyline8" />
	<path
	   style="fill:#085388;stroke:#085388;stroke-width:0.027907"
	   d="M 5.7348837,19.825562 0.01395349,17.19781 0.00691991,10.454719 C 0.00285344,6.5561905 0.01030621,3.7116279 0.02458687,3.7116279 c 0.03807302,0 11.40048013,4.0497759 11.42430313,4.0718367 0.01154,0.010687 0.01782,3.3157754 0.01395,7.3446394 l -0.007,7.325209 z"
	   id="path841" />
	<path
	   style="fill:#085388;stroke:#085388;stroke-width:0.027907"
	   d="m 12.55814,15.11046 c 0,-4.12052 0.0043,-7.4918553 0.0096,-7.4918553 0.0053,0 1.050114,-0.357907 2.321865,-0.7953489 1.27175,-0.4374418 2.322318,-0.7953488 2.334595,-0.7953488 0.01228,0 0.02232,1.8334883 0.02232,4.074419 0,2.24093 0.0094,4.07424 0.02093,4.074022 0.01151,-2.23e-4 0.705349,-0.223936 1.54186,-0.497151 l 1.520931,-0.496756 0.0071,-4.1166495 0.0071,-4.1166503 1.806885,-0.6193025 c 0.993786,-0.3406164 1.816328,-0.6190569 1.827869,-0.6187566 0.01154,3.002e-4 0.01782,3.1783506 0.01395,7.0623339 l -0.007,7.061789 -5.483721,2.287339 C 15.486279,21.380581 12.915,22.453181 12.788372,22.5061 l -0.230232,0.09622 z"
	   id="path843" />
	<path
	   style="fill:#085388;stroke:#085388;stroke-width:0.027907"
	   d="M 14.581395,2.3023086 C 11.557674,1.4521788 9.0774419,0.75517655 9.0697674,0.75341464 c -0.024784,-0.00569 2.6282616,-0.72549523 2.6753856,-0.72586638 0.06989,-5.5044e-4 11.557173,2.71846314 11.557173,2.73555604 0,0.017582 -3.15409,1.0908338 -3.195349,1.087291 -0.01535,-0.00132 -2.501861,-0.6979571 -5.525582,-1.5480867 z"
	   id="path845" />
	<path
	   style="fill:#085388;stroke:#085388;stroke-width:0.027907"
	   d="M 6.1571827,4.8767149 C 3.1968889,3.8457252 0.79200517,2.9962471 0.81299658,2.9889856 0.833988,2.9817242 1.9233389,2.6910265 3.2337763,2.3429909 L 5.6163899,1.7101988 11.164072,3.34586 c 3.051225,0.8996137 5.554073,1.6420527 5.561885,1.6498647 0.01596,0.015957 -5.039575,1.7405135 -5.129132,1.7496634 -0.03151,0.00322 -2.4793486,-0.8376837 -5.4396423,-1.8686732 z"
	   id="path847" />
	<path
	   style="fill:#0f885e;stroke:#0f885e;stroke-width:0.027907"
	   d="m 11.431495,22.443015 c -0.0075,-0.01215 -2.5795326,-1.200604 -5.7156004,-2.640998 l -5.70194122,-2.618896 0.0069082,-6.505514 c 0.0037995,-3.5780328 0.0069391,-6.6080486 0.0069767,-6.7333686 l 6.852e-5,-0.2278545 0.1744186,0.066136 c 0.20551616,0.077927 2.8685023,1.021125 2.9093023,1.0304397 0.015349,0.0035 0.059302,0.019288 0.097674,0.035075 0.08695,0.035774 1.1200008,0.4029173 1.1581396,0.4116001 0.015349,0.00349 0.053023,0.016516 0.083721,0.028937 0.1261435,0.051039 0.3078907,0.1191459 0.3209303,0.120263 0.00767,6.575e-4 0.045349,0.012956 0.083721,0.027331 0.1717951,0.064356 3.0867103,1.1015846 3.1116279,1.107226 0.015349,0.00347 0.053023,0.016481 0.083721,0.028901 0.1240481,0.050191 0.3078228,0.1191497 0.3209302,0.1204234 0.016769,0.00163 0.083336,0.025466 0.2511628,0.089937 0.06907,0.026533 0.1381395,0.051262 0.1534884,0.054953 0.03632,0.00873 0.084285,0.025836 0.2372093,0.084582 0.06907,0.026533 0.1348682,0.050006 0.1462186,0.052163 0.025685,0.00488 0.083865,0.025672 0.244479,0.087372 0.06907,0.026533 0.1381396,0.051167 0.1534884,0.054743 0.015349,0.00358 0.053023,0.015887 0.083721,0.027359 0.191368,0.071517 0.9525928,0.3431434 0.9761498,0.3483168 0.01568,0.00344 0.0599,0.019105 0.09827,0.034805 0.03837,0.0157 0.217326,0.082127 0.397674,0.1476148 L 11.44186,7.7936296 11.441581,7.97821 c -1.39e-4,0.1015195 0.003,3.402605 0.007,7.335745 0.004,3.93314 0.0049,7.151164 0.0019,7.151163 -0.0029,-1e-6 -0.01148,-0.0099 -0.01899,-0.0221 z"
	   id="path837" />
	<path
	   style="fill:#0f885e;stroke:#0f885e;stroke-width:0.027907"
	   d="M 10.967442,6.5273575 C 6.7656767,5.0773107 3.3171234,3.8756246 1.8418604,3.3474488 1.4044185,3.1908352 0.99824148,3.0477834 0.93924476,3.0295558 0.8356837,2.9975597 0.89015477,2.9808116 2.515989,2.5447595 3.442195,2.2963491 4.2251162,2.0861631 4.2558139,2.0776796 c 0.030698,-0.00848 0.087209,-0.021512 0.1255814,-0.028952 0.038372,-0.00744 0.1137209,-0.028088 0.1674418,-0.045884 0.1127604,-0.037355 0.124718,-0.040555 0.2372093,-0.063495 0.1688696,-0.034435 0.7267485,-0.1836029 0.7650813,-0.2045696 0.023123,-0.012647 0.2081168,0.028707 0.4461915,0.099743 0.2236806,0.066741 0.4256732,0.1252046 0.4488726,0.1299181 0.023199,0.00471 0.061018,0.016154 0.084041,0.025423 0.040809,0.01643 0.3382549,0.1023592 0.4010724,0.1158668 0.017317,0.00372 0.050323,0.014441 0.073346,0.023816 0.049033,0.019966 2.0312504,0.6036206 2.0930233,0.616281 0.023023,0.00472 0.060698,0.016092 0.083721,0.025273 0.045201,0.018026 0.6215389,0.1876052 0.6775954,0.1993726 0.018718,0.00393 0.05287,0.014756 0.075893,0.02406 0.04841,0.019563 1.2768421,0.3799941 1.3395351,0.3930298 0.02302,0.00479 0.0607,0.016448 0.08372,0.025912 0.04791,0.019693 3.061846,0.9096407 3.125581,0.9229123 0.02302,0.00479 0.0607,0.016229 0.08372,0.02541 0.0452,0.018026 0.621539,0.1876051 0.677595,0.1993726 0.01872,0.00393 0.05287,0.014788 0.07589,0.02413 0.0621,0.025201 0.983852,0.2995259 1.032558,0.3073041 0.02302,0.00368 0.05442,0.014263 0.06977,0.023526 0.01535,0.00926 0.06858,0.025563 0.118284,0.036224 0.04971,0.01066 0.09608,0.028602 0.10304,0.039869 0.007,0.011268 -0.291148,0.1253582 -0.662471,0.2535341 -0.371323,0.1281759 -0.69083,0.2451097 -0.710016,0.2598527 -0.01919,0.014743 -0.03488,0.019679 -0.03488,0.010968 0,-0.012768 -0.252269,0.070507 -0.830525,0.2741579 -0.01935,0.00681 -0.03819,0.012653 -0.04186,0.012976 -0.0124,0.00109 -1.485363,0.5045801 -1.527614,0.5221724 -0.02302,0.00959 -0.05719,0.020646 -0.07592,0.024578 -0.05921,0.012426 -0.913479,0.2981584 -0.942681,0.3153039 -0.03319,0.019485 -0.05319,0.024339 -0.181396,0.044025 -0.07465,0.011463 -0.232502,-0.031532 -0.669767,-0.1824341 z"
	   id="path839" />
	<path
	   style="fill:#0f885e;stroke:#0f885e;stroke-width:0.027907"
	   d="m 12.565809,15.122825 c 0.0092,-4.115116 0.02143,-7.4868095 0.02727,-7.492651 0.02259,-0.022593 4.599534,-1.5817439 4.610646,-1.5706324 0.0065,0.00647 0.0184,1.3237472 0.0265,2.9272762 0.02523,4.9907782 0.02749,5.1899262 0.05895,5.1899262 0.01607,0 0.700605,-0.218579 1.521183,-0.485732 l 1.49196,-0.485733 0.01615,-0.260779 c 0.0089,-0.143428 0.01855,-1.993428 0.02149,-4.1111089 0.0029,-2.1176816 0.01451,-3.8587174 0.02571,-3.8689688 0.03327,-0.030451 3.577969,-1.2347284 3.592259,-1.2204375 0.0072,0.00721 0.01649,3.1776913 0.02061,7.0455082 l 0.0075,7.032395 -2.218605,0.925137 c -7.33401,3.058214 -9.064217,3.781075 -9.13705,3.817359 l -0.08124,0.04047 z"
	   id="path842" />
	<path
	   style="fill:#0f885e;stroke:#0f885e;stroke-width:0.027907"
	   d="M 19.297674,3.6131095 C 18.898605,3.5000307 18.540698,3.4011694 18.502326,3.3934171 c -0.03837,-0.00775 -0.196209,-0.05208 -0.350748,-0.098507 -0.154539,-0.046427 -0.305237,-0.088184 -0.334884,-0.092794 -0.02965,-0.00461 -0.06646,-0.015781 -0.08181,-0.024825 -0.02144,-0.012635 -0.22322,-0.067079 -0.348837,-0.094125 -0.0077,-0.00165 -0.101881,-0.030062 -0.209347,-0.063133 -0.107466,-0.03307 -0.220489,-0.064918 -0.251163,-0.070772 -0.03067,-0.00585 -0.07461,-0.018447 -0.09763,-0.027983 -0.02302,-0.00954 -0.07326,-0.023867 -0.111628,-0.031844 C 16.677907,2.8814561 16.112791,2.7237098 15.460465,2.5388865 14.80814,2.3540632 14.255581,2.1991496 14.232558,2.194634 14.209538,2.190114 14.102771,2.159527 13.995305,2.126653 13.887839,2.093779 13.774815,2.062092 13.744142,2.056238 13.713472,2.050388 13.669532,2.038049 13.646512,2.028826 13.61099,2.0145969 13.492433,1.9821479 13.311737,1.937198 13.288654,1.9314559 12.825461,1.8005839 12.282421,1.6463713 11.73938,1.4921588 11.274729,1.3628098 11.249862,1.3589292 c -0.02487,-0.00388 -0.05777,-0.014455 -0.07312,-0.023498 -0.02144,-0.012635 -0.22322,-0.06708 -0.348837,-0.094126 -0.0077,-0.00165 -0.10188,-0.030062 -0.209347,-0.063132 -0.107466,-0.03307 -0.220489,-0.064028 -0.251162,-0.068795 -0.03067,-0.00477 -0.06833,-0.016066 -0.08368,-0.02511 -0.02144,-0.012635 -0.22322,-0.06708 -0.3488373,-0.0941257 -0.00767,-0.001652 -0.1018753,-0.030062 -0.2093415,-0.0631324 C 9.618071,0.89393959 9.5050478,0.86298179 9.4743744,0.85821498 9.443701,0.85344813 9.4060465,0.84196949 9.3906977,0.83270688 9.3753488,0.82344428 9.3221207,0.80714373 9.272413,0.79648346 9.1709987,0.77473418 9.1222361,0.72558129 9.2020739,0.72558129 c 0.028534,0 0.066949,-0.0150698 0.085368,-0.0334884 0.018419,-0.0184186 0.033488,-0.0252984 0.033488,-0.0152883 0,0.01001 0.059651,-7.186e-4 0.1325581,-0.0238416 0.072907,-0.0231229 0.1690841,-0.0487063 0.2137269,-0.0568521 0.044643,-0.008146 0.1137127,-0.0274559 0.1534884,-0.0429115 0.039776,-0.0154556 0.103715,-0.0339164 0.1420871,-0.0410241 0.081866,-0.0151642 0.3581846,-0.0901838 0.4186046,-0.11365002 0.06007,-0.0233297 0.08732,-0.0307508 0.181396,-0.0493912 0.07949,-0.0157516 0.462563,-0.11601177 0.537502,-0.14067945 0.01935,-0.006368 0.03818,-0.0119882 0.04186,-0.0124883 0.0037,-5.001e-4 0.123753,-0.032239 0.266838,-0.0705309 0.320566,-0.08578931 0.354837,-0.08590336 0.709843,-0.002362 0.157199,0.0369926 0.329771,0.0751544 0.383492,0.084804 0.05372,0.00965 0.110232,0.0212211 0.125581,0.0257144 0.130254,0.0381312 0.264995,0.072244 0.334884,0.0847834 0.04605,0.008262 0.159069,0.033547 0.251162,0.0561896 0.09209,0.0226426 0.198838,0.0478595 0.23721,0.0560375 0.03837,0.008178 0.145116,0.0332943 0.237209,0.0558139 0.09209,0.0225196 0.198837,0.0473408 0.237209,0.0551582 0.03837,0.007817 0.138838,0.0327328 0.223256,0.0553676 0.08442,0.0226348 0.191163,0.0476509 0.23721,0.0555914 0.04605,0.007941 0.15279,0.0330568 0.237209,0.055814 0.08442,0.0227572 0.191163,0.0478734 0.237209,0.055814 0.04605,0.007941 0.152791,0.0330568 0.237209,0.055814 0.08442,0.0227572 0.191163,0.0478734 0.23721,0.055814 0.04605,0.007941 0.15279,0.0330568 0.237209,0.055814 0.08442,0.0227572 0.197442,0.0489901 0.251163,0.0582955 0.05372,0.009305 0.110232,0.0205952 0.125581,0.0250885 0.135231,0.039588 0.265047,0.072103 0.334884,0.083878 0.04605,0.00776 0.108837,0.020943 0.139535,0.029288 0.08194,0.022275 0.379719,0.094542 0.460465,0.1117514 0.03837,0.00818 0.145116,0.033294 0.237209,0.055814 0.09209,0.02252 0.205117,0.04853 0.251163,0.057801 0.04605,0.00927 0.09628,0.02036 0.111628,0.024642 0.191876,0.053535 0.264044,0.071607 0.334884,0.083864 0.04605,0.00797 0.177907,0.039291 0.293023,0.069609 0.115116,0.030318 0.246977,0.061964 0.293023,0.070325 0.04605,0.00836 0.183471,0.04027 0.305387,0.070911 0.121917,0.030641 0.253777,0.062036 0.293024,0.069767 0.03925,0.00773 0.171107,0.039127 0.293023,0.069767 0.121916,0.030641 0.253777,0.061732 0.293023,0.069092 0.03925,0.00736 0.140427,0.032001 0.224846,0.054758 0.08442,0.022757 0.191162,0.048177 0.237209,0.056489 0.04605,0.00831 0.183471,0.040183 0.305387,0.070823 0.121916,0.030641 0.253777,0.062036 0.293023,0.069767 0.03925,0.00773 0.171107,0.039127 0.293024,0.069767 0.121916,0.030641 0.253776,0.061619 0.293023,0.068841 0.03925,0.00722 0.09647,0.019958 0.127171,0.028303 0.08153,0.022161 0.379408,0.094472 0.460465,0.1117778 0.03837,0.00819 0.192862,0.045862 0.343312,0.08371 0.150449,0.037848 0.307426,0.075003 0.348837,0.082566 0.04141,0.00756 0.100409,0.020423 0.131107,0.028577 0.0307,0.00815 0.162558,0.042038 0.293023,0.075299 0.130465,0.03326 0.247341,0.069485 0.259723,0.0805 0.01238,0.011015 -0.16971,0.086698 -0.404651,0.1681859 -0.234941,0.081487 -0.45856,0.1605648 -0.496932,0.1757278 -0.03837,0.015163 -0.08233,0.030412 -0.09768,0.033887 -0.03971,0.00899 -1.358825,0.4569801 -1.409302,0.4786192 -0.02302,0.00987 -0.05128,0.020599 -0.06279,0.023843 -0.01151,0.00324 -0.02721,0.00904 -0.03488,0.012876 -0.0077,0.00384 -0.02337,0.00874 -0.03488,0.010892 -0.01151,0.00215 -0.03663,0.013883 -0.05581,0.026066 -0.01919,0.012183 -0.03488,0.015878 -0.03488,0.00821 0,-0.00767 -0.09011,0.016709 -0.200237,0.054167 -0.11013,0.037458 -0.232572,0.067081 -0.272093,0.065831 -0.03952,-0.00125 -0.398368,-0.094793 -0.797438,-0.2078718 z"
	   id="path844" />
</svg>
