<?xml version="1.0" encoding="UTF-8" standalone="no"?>
<svg
   xmlns:dc="http://purl.org/dc/elements/1.1/"
   xmlns:cc="http://creativecommons.org/ns#"
   xmlns:rdf="http://www.w3.org/1999/02/22-rdf-syntax-ns#"
   xmlns:svg="http://www.w3.org/2000/svg"
   xmlns="http://www.w3.org/2000/svg"
   xmlns:sodipodi="http://sodipodi.sourceforge.net/DTD/sodipodi-0.dtd"
   xmlns:inkscape="http://www.inkscape.org/namespaces/inkscape"
   version="1.2"
   x="0px"
   y="0px"
   width="50px"
   height="50px"
   viewBox="0 0 50 50"
   xml:space="preserve"
   id="svg18"
   sodipodi:docname="calenderdate.svg"
   inkscape:version="1.0.2-2 (e86c870879, 2021-01-15)"><metadata
   id="metadata24"><rdf:RDF><cc:Work
       rdf:about=""><dc:format>image/svg+xml</dc:format><dc:type
         rdf:resource="http://purl.org/dc/dcmitype/StillImage" /></cc:Work></rdf:RDF></metadata><defs
   id="defs22" /><sodipodi:namedview
   pagecolor="#ffffff"
   bordercolor="#666666"
   borderopacity="1"
   objecttolerance="10"
   gridtolerance="10"
   guidetolerance="10"
   inkscape:pageopacity="0"
   inkscape:pageshadow="2"
   inkscape:window-width="1494"
   inkscape:window-height="894"
   id="namedview20"
   showgrid="false"
   inkscape:zoom="17.2"
   inkscape:cx="25"
   inkscape:cy="25"
   inkscape:window-x="0"
   inkscape:window-y="0"
   inkscape:window-maximized="0"
   inkscape:current-layer="svg18" />
<g
	   id="Ebene_1"
	   display="none">
	<path
	   display="inline"
	   fill="#3C3C3C"
	   d="M0.706,24.02L19.338,4.854c0,0,2.218-2.341,2.218,0.198c0,2.54,0,8.691,0,8.691   s1.492,0,3.786,0c6.564,0,18.483,0,23.34,0c0,0,1.318-0.345,1.318,1.658c0,2.002,0,18.267,0,19.703c0,1.438-1.1,1.395-1.1,1.395   c-4.731,0-17.063,0-23.39,0c-2.069,0-3.412,0-3.412,0s0,4.931,0,8.029c0,3.087-2.301,0.758-2.301,0.758S2.375,28.42,0.559,26.608   C-0.779,25.27,0.706,24.02,0.706,24.02z"
	   id="path2" />
</g>
<g
	   id="Ebene_2">
	<g
	   id="g15">
		<path
	   fill="#3C3C3C"
	   d="M33.582,14.889c1.346,0,2.428-1.08,2.428-2.422v-2.54c0-1.345-1.082-2.427-2.428-2.427    c-1.339,0-2.424,1.082-2.424,2.427v2.54C31.158,13.809,32.243,14.889,33.582,14.889z"
	   id="path5" />
		<path
	   fill="#3C3C3C"
	   d="M42.21,11.704h-4.89v1.23c0,2.042-1.657,3.699-3.695,3.699c-2.041,0-3.696-1.657-3.696-3.699v-1.23h-9.856    v1.23c0,2.042-1.656,3.699-3.695,3.699c-2.043,0-3.694-1.657-3.694-3.699v-1.23l-4.93-0.063v30.857l2.465,0.002h29.565l2.465-0.01    L42.21,11.704z M39.783,40.043H10.218V20.327h29.565V40.043z"
	   id="path7" />
		<path
	   fill="#3C3C3C"
	   d="M16.335,14.889c1.345,0,2.428-1.08,2.428-2.422v-2.54c0-1.345-1.083-2.427-2.428-2.427    c-1.339,0-2.424,1.082-2.424,2.427v2.54C13.911,13.809,14.997,14.889,16.335,14.889z"
	   id="path9" />
		<path
	   fill="#3C3C3C"
	   d="M16.872,33.64c0.507,0.277,1.659,0.744,2.819,0.744c1.47,0,2.214-0.706,2.214-1.603    c0-1.209-1.197-1.752-2.438-1.752h-1.157v-2.032h1.115c0.952,0,2.145-0.373,2.145-1.399c0-0.727-0.581-1.267-1.789-1.267    c-0.989,0-2.029,0.429-2.517,0.729l-0.579-2.049c0.732-0.467,2.163-0.915,3.75-0.915c2.574,0,4.002,1.358,4.002,3.016    c0,1.288-0.722,2.314-2.217,2.814v0.04c1.455,0.26,2.631,1.361,2.631,2.962c0,2.124-1.882,3.689-4.959,3.689    c-1.568,0-2.888-0.408-3.594-0.841L16.872,33.64z"
	   id="path11" />
		<polygon
	   fill="#3C3C3C"
	   points="30.335,26.819 30.301,26.819 27.99,27.918 27.523,25.791 30.746,24.303 33.076,24.303     33.076,36.416 30.335,36.416   "
	   id="polygon13" />
	</g>
</g>
<path
	   style="fill:#0f885e;stroke:#0f885e;stroke-width:0.0581395"
	   d="m 18.930743,36.541124 c -0.839994,-0.105975 -1.541934,-0.295858 -2.202127,-0.595701 -0.287889,-0.130751 -0.386447,-0.203572 -0.36728,-0.271367 0.01441,-0.05096 0.137053,-0.511265 0.272544,-1.022893 0.13549,-0.511628 0.249925,-0.936078 0.254299,-0.943221 0.0044,-0.0071 0.215771,0.07641 0.469771,0.18568 0.844544,0.363314 1.345458,0.46511 2.293213,0.466027 0.686782,6.63e-4 0.898224,-0.01968 1.140868,-0.109757 0.475291,-0.176448 0.802034,-0.448202 0.982574,-0.817211 0.141334,-0.288876 0.15603,-0.373031 0.131606,-0.753604 C 21.859381,31.949362 21.50238,31.518055 20.679365,31.196878 20.362162,31.073091 20.201529,31.053465 19.31686,31.0304 L 18.313953,31.00425 V 30.030255 29.05626 l 0.886628,-0.03113 c 0.982344,-0.03449 1.353325,-0.11751 1.804091,-0.40374 0.389675,-0.24744 0.565095,-0.566448 0.565095,-1.027648 0,-0.548429 -0.21948,-0.862295 -0.784883,-1.122418 -0.252634,-0.116228 -0.382052,-0.133609 -0.988372,-0.132746 -0.795133,0.0011 -1.382932,0.130114 -2.097461,0.460247 l -0.419185,0.193675 -0.2715,-0.952279 c -0.149324,-0.523754 -0.254996,-0.978982 -0.234825,-1.011619 0.118993,-0.192536 1.286439,-0.602615 2.172004,-0.762944 0.828575,-0.15001 2.037323,-0.162958 2.660003,-0.02849 1.578324,0.340831 2.555049,1.224159 2.766838,2.502268 0.13868,0.836908 -0.192574,1.792813 -0.823783,2.377201 -0.319837,0.296113 -1.074228,0.738011 -1.259903,0.738011 -0.04367,0 -0.0794,0.03305 -0.0794,0.07345 0,0.04075 0.135883,0.105336 0.305233,0.145076 1.130401,0.265258 2.061076,1.239963 2.256316,2.36306 0.331615,1.907588 -1.084349,3.560432 -3.441552,4.017296 -0.579302,0.112278 -1.838418,0.158258 -2.398556,0.08759 z"
	   id="path851" /><path
   style="fill:#0f885e;stroke:#0f885e;stroke-width:0.0581395"
   d="m 30.348837,31.569767 c 0,-2.638081 -0.01049,-4.796511 -0.02332,-4.796511 -0.01282,0 -0.534985,0.246443 -1.160356,0.547652 -0.952184,0.458617 -1.141788,0.531871 -1.166248,0.450581 -0.06038,-0.200663 -0.440165,-1.948422 -0.426241,-1.96155 0.008,-0.0075 0.730052,-0.343294 1.604574,-0.746124 l 1.59004,-0.73242 h 1.127984 1.127983 v 6.017442 6.017442 h -1.337209 -1.33721 z"
   id="path853" /><path
   style="fill:#0f885e;stroke:#0f885e;stroke-width:0.0581395"
   d="M 7.7906977,27.054802 V 11.638674 l 1.002907,0.03804 c 0.5515988,0.02092 1.6504363,0.03812 2.4418603,0.03822 l 1.438954,1.78e-4 v 0.862793 c 0,1.279195 0.220416,2.000161 0.833638,2.72677 1.140194,1.351019 2.982158,1.732889 4.550943,0.943488 0.882944,-0.444291 1.555653,-1.227945 1.859286,-2.165928 0.133269,-0.411694 0.158634,-0.60794 0.183847,-1.422355 l 0.02925,-0.944768 h 4.868027 4.868026 l 0.031,0.944768 c 0.0265,0.807647 0.05327,1.014082 0.184441,1.422355 0.30082,0.936305 0.973965,1.720975 1.858128,2.165984 0.621091,0.312601 1.18352,0.428685 1.896209,0.391373 1.505506,-0.07882 2.748992,-1.008163 3.303014,-2.468576 0.134375,-0.354214 0.151,-0.491307 0.172672,-1.423927 l 0.02398,-1.031977 h 2.436213 2.436213 V 27.093023 42.47093 H 25 7.7906977 Z M 39.825581,30.203488 V 20.319767 H 25 10.174419 v 9.883721 9.883721 H 25 39.825581 Z"
   id="path855" /><path
   style="fill:#0f885e;stroke:#0f885e;stroke-width:0.0581395"
   d="m 15.639535,14.749443 c -0.439066,-0.146301 -0.736543,-0.346114 -1.088332,-0.731028 -0.536048,-0.586522 -0.564639,-0.718214 -0.585911,-2.698761 -0.0199,-1.8530941 0.0079,-2.0815074 0.318133,-2.6108317 0.187198,-0.319429 0.693451,-0.7799117 1.032801,-0.9394248 1.322578,-0.621685 2.893427,0.089874 3.311151,1.4998758 0.07613,0.2569774 0.09355,0.6158392 0.09355,1.9270157 0,1.447487 -0.01183,1.649525 -0.116388,1.988053 -0.203536,0.658972 -0.764381,1.263048 -1.39524,1.502787 -0.453091,0.172184 -1.156263,0.200097 -1.569767,0.06231 z"
   id="path857" /><path
   style="fill:#0f885e;stroke:#0f885e;stroke-width:0.0581395"
   d="m 32.840477,14.723817 c -0.674137,-0.236468 -1.122105,-0.63057 -1.411498,-1.241777 -0.232585,-0.491227 -0.28171,-0.991576 -0.253134,-2.578238 0.02347,-1.3032739 0.03697,-1.456001 0.155615,-1.7607329 0.368532,-0.9465503 1.117315,-1.5144628 2.10609,-1.5973581 0.986383,-0.082695 1.998739,0.568603 2.383071,1.5331453 0.127924,0.3210464 0.136496,0.426949 0.155722,1.9238757 0.02235,1.740588 -0.0077,2.012164 -0.283478,2.564106 -0.504835,1.010266 -1.787464,1.530522 -2.852388,1.156979 z"
   id="path859" /></svg>
