<?xml version="1.0" encoding="UTF-8" standalone="no"?>
<svg
   xmlns:dc="http://purl.org/dc/elements/1.1/"
   xmlns:cc="http://creativecommons.org/ns#"
   xmlns:rdf="http://www.w3.org/1999/02/22-rdf-syntax-ns#"
   xmlns:svg="http://www.w3.org/2000/svg"
   xmlns="http://www.w3.org/2000/svg"
   xmlns:sodipodi="http://sodipodi.sourceforge.net/DTD/sodipodi-0.dtd"
   xmlns:inkscape="http://www.inkscape.org/namespaces/inkscape"
   version="1.2"
   x="0px"
   y="0px"
   width="50px"
   height="50px"
   viewBox="0 0 50 50"
   xml:space="preserve"
   id="svg12"
   sodipodi:docname="clock.svg"
   inkscape:version="1.0.2-2 (e86c870879, 2021-01-15)"><metadata
   id="metadata18"><rdf:RDF><cc:Work
       rdf:about=""><dc:format>image/svg+xml</dc:format><dc:type
         rdf:resource="http://purl.org/dc/dcmitype/StillImage" /></cc:Work></rdf:RDF></metadata><defs
   id="defs16" /><sodipodi:namedview
   pagecolor="#ffffff"
   bordercolor="#666666"
   borderopacity="1"
   objecttolerance="10"
   gridtolerance="10"
   guidetolerance="10"
   inkscape:pageopacity="0"
   inkscape:pageshadow="2"
   inkscape:window-width="1557"
   inkscape:window-height="895"
   id="namedview14"
   showgrid="false"
   inkscape:zoom="17.2"
   inkscape:cx="25"
   inkscape:cy="25"
   inkscape:window-x="0"
   inkscape:window-y="0"
   inkscape:window-maximized="0"
   inkscape:current-layer="svg12" />
<g
	   id="Ebene_1"
	   display="none">
	<path
	   display="inline"
	   fill="#3C3C3C"
	   d="M0.706,24.02L19.338,4.854c0,0,2.218-2.341,2.218,0.198c0,2.54,0,8.691,0,8.691   s1.492,0,3.786,0c6.564,0,18.483,0,23.34,0c0,0,1.318-0.345,1.318,1.658c0,2.002,0,18.267,0,19.703c0,1.438-1.1,1.395-1.1,1.395   c-4.731,0-17.063,0-23.39,0c-2.069,0-3.412,0-3.412,0s0,4.931,0,8.029c0,3.087-2.301,0.758-2.301,0.758S2.375,28.42,0.559,26.608   C-0.779,25.27,0.706,24.02,0.706,24.02z"
	   id="path2" />
</g>
<g
	   id="Ebene_2">
	<g
	   id="g9">
		<path
	   fill="#3C3C3C"
	   d="M25.002,7.5C15.336,7.5,7.5,15.338,7.5,25.003c0,9.661,7.835,17.497,17.501,17.497    c9.664,0,17.498-7.836,17.498-17.497C42.5,15.338,34.666,7.5,25.002,7.5z M25.002,37.186c-6.72,0-12.188-5.465-12.188-12.183    c0-6.724,5.469-12.193,12.188-12.193c6.721,0,12.184,5.469,12.184,12.193C37.186,31.721,31.723,37.186,25.002,37.186z"
	   id="path5" />
		<path
	   fill="#3C3C3C"
	   d="M26.507,24.037l0.001-6.756c0-0.831-0.674-1.502-1.506-1.502c-0.835,0-1.51,0.671-1.51,1.502v6.756v3.012    v0.003h3.015v-0.003l6.757,0.003c0.828,0,1.505-0.674,1.505-1.506c0-0.834-0.677-1.508-1.505-1.508H26.507z"
	   id="path7" />
	</g>
</g>
<path
	   style="fill:#0f885e;stroke:#0f885e;stroke-width:0.0581395"
	   d="m 24.418605,42.457587 c -4.365218,-0.125224 -8.622485,-1.980895 -11.773426,-5.131836 -6.8125183,-6.812518 -6.8125183,-17.838984 0,-24.651502 2.571284,-2.571284 5.815576,-4.2623798 9.360635,-4.8792563 2.025445,-0.3524481 4.275616,-0.3327747 6.308139,0.055152 5.507197,1.0511026 10.306167,4.8466673 12.605756,9.9700473 2.983082,6.64617 1.573856,14.356966 -3.565058,19.506764 -3.42897,3.436234 -8.054216,5.270676 -12.936046,5.130631 z m 1.806762,-5.310967 c 2.673599,-0.263876 5.223756,-1.432177 7.171018,-3.28525 2.003202,-1.906307 3.28992,-4.392462 3.698568,-7.146254 0.127714,-0.860638 0.127377,-2.575669 -6.74e-4,-3.42357 -0.420512,-2.784481 -1.693336,-5.251479 -3.684653,-7.141618 -1.776593,-1.686326 -3.877517,-2.744936 -6.345673,-3.197449 -0.991539,-0.181789 -3.107414,-0.182515 -4.098837,-0.0014 -2.034675,0.371686 -3.710191,1.096542 -5.311393,2.297799 -2.565682,1.924831 -4.256665,4.789198 -4.748004,8.042674 -0.128049,0.847901 -0.128386,2.562932 -6.72e-4,3.42357 0.516936,3.483524 2.432472,6.510906 5.360786,8.472379 0.67622,0.452954 2.100847,1.14737 2.882842,1.405205 1.591128,0.524618 3.387584,0.72063 5.076692,0.55392 z"
	   id="path843" /><path
   style="fill:#0f885e;stroke:#0f885e;stroke-width:0.0581395"
   d="m 23.530738,21.962209 0.01577,-5.072674 0.125719,-0.232558 c 0.598739,-1.107561 2.063248,-1.107981 2.656288,-7.62e-4 0.123458,0.230498 0.125166,0.276735 0.141205,3.823436 l 0.01624,3.590116 3.530275,5.82e-4 3.530277,5.81e-4 0.290697,0.135658 c 0.998261,0.46585 1.194476,1.705778 0.385582,2.436565 -0.446322,0.403199 -0.277264,0.391731 -5.77528,0.391731 h -4.932548 z"
   id="path845" /></svg>
