<?xml version="1.0" encoding="UTF-8" standalone="no"?>
<svg
   xmlns:dc="http://purl.org/dc/elements/1.1/"
   xmlns:cc="http://creativecommons.org/ns#"
   xmlns:rdf="http://www.w3.org/1999/02/22-rdf-syntax-ns#"
   xmlns:svg="http://www.w3.org/2000/svg"
   xmlns="http://www.w3.org/2000/svg"
   xmlns:sodipodi="http://sodipodi.sourceforge.net/DTD/sodipodi-0.dtd"
   xmlns:inkscape="http://www.inkscape.org/namespaces/inkscape"
   version="1.2"
   x="0px"
   y="0px"
   width="50px"
   height="50px"
   viewBox="0 0 50 50"
   xml:space="preserve"
   id="svg12"
   sodipodi:docname="user.svg"
   inkscape:version="1.0.2-2 (e86c870879, 2021-01-15)"><metadata
   id="metadata18"><rdf:RDF><cc:Work
       rdf:about=""><dc:format>image/svg+xml</dc:format><dc:type
         rdf:resource="http://purl.org/dc/dcmitype/StillImage" /></cc:Work></rdf:RDF></metadata><defs
   id="defs16" /><sodipodi:namedview
   pagecolor="#ffffff"
   bordercolor="#666666"
   borderopacity="1"
   objecttolerance="10"
   gridtolerance="10"
   guidetolerance="10"
   inkscape:pageopacity="0"
   inkscape:pageshadow="2"
   inkscape:window-width="1340"
   inkscape:window-height="823"
   id="namedview14"
   showgrid="false"
   inkscape:zoom="17.2"
   inkscape:cx="25"
   inkscape:cy="25"
   inkscape:window-x="100"
   inkscape:window-y="0"
   inkscape:window-maximized="0"
   inkscape:current-layer="svg12" />
<g
		   id="Ebene_1"
		   display="none">
	<path
		   display="inline"
		   fill="#3C3C3C"
		   d="M0.706,24.02L19.338,4.854c0,0,2.218-2.341,2.218,0.198c0,2.54,0,8.691,0,8.691   s1.492,0,3.786,0c6.564,0,18.483,0,23.34,0c0,0,1.318-0.345,1.318,1.658c0,2.002,0,18.267,0,19.703c0,1.438-1.1,1.395-1.1,1.395   c-4.731,0-17.063,0-23.39,0c-2.069,0-3.412,0-3.412,0s0,4.931,0,8.029c0,3.087-2.301,0.758-2.301,0.758S2.375,28.42,0.559,26.608   C-0.779,25.27,0.706,24.02,0.706,24.02z"
		   id="path2" />
</g>
<g
		   id="Ebene_2">
	<g
		   id="g9">
		<path
		   fill="#3C3C3C"
		   d="M37.85,29.537c-0.808-1.789-5.72-3.338-5.72-3.338c-2.619-0.924-2.639-1.846-2.639-1.846    c-5.154,10.157-9.066,0.027-9.066,0.027c-0.357,1.371-5.66,2.982-5.66,2.982c-1.548,0.595-2.205,1.488-2.205,1.488    C10.268,32.247,10,39.813,10,39.813c0.032,1.727,0.773,1.906,0.773,1.906c5.272,2.354,13.538,2.77,13.538,2.77    c8.49,0.18,14.67-2.412,14.67-2.412c0.896-0.564,0.924-1.013,0.924-1.013C40.531,35.643,37.85,29.537,37.85,29.537z"
		   id="path5" />
		<path
		   fill="#3C3C3C"
		   d="M19.126,18.987c0.395,3.266,3.205,6.65,5.754,6.65c2.93,0,5.715-3.558,6.15-6.65    c0.165-0.118,0.435-0.402,0.535-1.047c0,0,0.626-2.239-0.202-1.999c0.289-0.864,1.246-4.227-0.61-6.316    c0,0-0.868-1.187-2.981-1.816c-0.075-0.061-0.148-0.122-0.236-0.183c0,0,0.047,0.054,0.115,0.146    c-0.119-0.034-0.247-0.063-0.375-0.093c-0.111-0.12-0.243-0.243-0.388-0.376c0,0,0.128,0.133,0.281,0.351    c-0.059-0.013-0.11-0.028-0.167-0.037c-0.097-0.147-0.214-0.297-0.36-0.45c0,0,0.062,0.118,0.142,0.303    c-0.388-0.285-1.17-0.947-1.17-1.687c0,0-0.489,0.228-0.776,0.646c0.114-0.344,0.302-0.662,0.609-0.925    c0,0-0.322,0.165-0.618,0.522c-0.23,0.13-0.757,0.491-0.935,1.131L23.725,7.07c0.083-0.181,0.198-0.373,0.356-0.565    c0,0-0.229,0.204-0.429,0.529l-0.34-0.17c0.101-0.189,0.233-0.383,0.413-0.574c0,0-0.18,0.141-0.374,0.377    c0.055-0.221,0.044-0.474-0.64,0.276c0,0-3.087,1.339-3.98,4.11c0,0-0.524,1.253,0.171,4.933    c-0.989-0.466-0.314,1.953-0.314,1.953C18.688,18.586,18.961,18.869,19.126,18.987z M19.068,17.678L19.068,17.678L19.068,17.678z     M24.734,6.148c-0.15,0.208-0.281,0.469-0.343,0.787l-0.108-0.04C24.368,6.627,24.51,6.369,24.734,6.148z"
		   id="path7" />
	</g>
</g>
<path
		   style="fill:#0f885e;stroke:#0f885e;stroke-width:0.0581395"
		   d="m 23.517442,44.408406 c -4.314797,-0.365901 -8.109629,-1.073734 -10.97657,-2.047411 -0.896661,-0.304526 -1.724337,-0.639046 -1.917478,-0.774983 -0.194928,-0.137193 -0.406242,-0.542035 -0.507789,-0.972832 -0.1379365,-0.585179 0.0066,-2.799386 0.319055,-4.886436 0.365733,-2.443211 0.926552,-4.471982 1.635326,-5.91581 0.450813,-0.918341 0.788132,-1.315605 1.534711,-1.807445 0.541514,-0.356745 0.802328,-0.470062 2.238326,-0.972497 2.356223,-0.824408 4.007667,-1.687897 4.439992,-2.321534 l 0.137667,-0.201771 0.358975,0.71667 c 0.47577,0.949844 1.037952,1.783314 1.611676,2.389414 1.220868,1.289763 2.399645,1.597794 3.684248,0.962745 0.255814,-0.126463 0.609012,-0.35412 0.784884,-0.505904 0.771904,-0.666185 1.622852,-1.781642 2.26772,-2.972617 0.175719,-0.324528 0.332571,-0.589826 0.348559,-0.589552 0.01599,2.74e-4 0.09448,0.106938 0.174419,0.23703 0.299531,0.487438 1.31627,1.08345 2.61115,1.530655 1.635363,0.564795 3.263388,1.310813 4.191175,1.920542 0.239826,0.15761 0.621027,0.470859 0.847113,0.696109 0.481009,0.479231 0.620182,0.771668 1.218652,2.560709 0.596469,1.783059 0.997336,3.44038 1.258602,5.203489 0.116115,0.783585 0.133629,1.128732 0.134237,2.645349 7.91e-4,1.976896 0.01608,1.901452 -0.47927,2.364797 -0.340498,0.318495 -0.477195,0.393278 -1.188649,0.650271 -2.876644,1.039107 -6.940638,1.837342 -10.539692,2.070167 -0.846091,0.05473 -3.624308,0.06857 -4.187039,0.02085 z"
		   id="path843" /><path
   style="fill:#0f885e;stroke:#0f885e;stroke-width:0.0581395"
   d="m 24.195837,25.521317 c -1.292222,-0.28049 -2.802077,-1.530284 -3.790477,-3.137596 -0.567075,-0.922163 -1.097094,-2.28233 -1.195648,-3.068343 -0.02424,-0.193306 -0.0859,-0.356599 -0.169587,-0.449099 -0.19361,-0.213998 -0.297598,-0.447955 -0.428209,-0.963406 -0.199133,-0.785875 -0.262712,-1.412099 -0.170762,-1.681943 0.07287,-0.213847 0.09561,-0.232118 0.282721,-0.227085 l 0.203477,0.0055 -0.131448,-0.848141 c -0.359725,-2.321041 -0.284148,-3.712141 0.260903,-4.802338 0.600876,-1.2018544 1.969475,-2.5171409 3.326914,-3.1973151 0.175872,-0.088124 0.450581,-0.281233 0.610465,-0.42913 l 0.290698,-0.2689035 0.01778,0.2325581 c 0.01651,0.2159379 0.03849,0.2424298 0.307609,0.3706857 0.159407,0.07597 0.296701,0.1282956 0.305099,0.116279 0.0084,-0.012017 0.06298,-0.1316042 0.121293,-0.2657503 0.05831,-0.134146 0.168107,-0.302224 0.243984,-0.3735066 0.161704,-0.1519134 0.167393,-0.1358459 0.05075,0.1433246 -0.107267,0.2567265 -0.107498,0.2705955 -0.0045,0.2705955 0.04548,0 0.114376,-0.09598 0.153091,-0.2132892 0.08707,-0.2638108 0.270973,-0.5833196 0.445789,-0.7744888 0.147977,-0.1618183 0.175141,-0.122503 0.05122,0.074126 -0.04464,0.070823 -0.100387,0.1928737 -0.123892,0.2712247 -0.03758,0.125262 -0.0085,0.112297 0.241039,-0.1074168 0.440459,-0.3878371 0.463975,-0.3924761 0.536169,-0.1057685 0.03409,0.1353733 0.144315,0.3704406 0.244949,0.5223717 0.180242,0.2721151 0.78469,0.8564968 0.885907,0.8564968 0.02855,0 0.11842,0.052326 0.199724,0.1162791 0.0813,0.063954 0.199849,0.1162791 0.263435,0.1162791 0.192222,0 1.283532,0.386054 1.738483,0.6149936 0.927399,0.4666827 1.732315,1.1629806 2.161914,1.8701769 0.84502,1.391052 0.927458,3.376514 0.235379,5.668899 -0.02226,0.07374 0.002,0.101744 0.08814,0.101744 0.235871,0 0.316371,0.241759 0.276732,0.831084 -0.06106,0.907852 -0.44559,2.134033 -0.669226,2.134033 -0.02599,0 -0.07944,0.176598 -0.118777,0.392441 -0.446429,2.449913 -2.451068,5.106673 -4.486535,5.946031 -0.799518,0.329695 -1.536877,0.414213 -2.254587,0.258426 z"
   id="path845" /></svg>
